<svg width="19" height="13" viewBox="0 0 19 13" fill="none" xmlns="http://www.w3.org/2000/svg">
<path fill-rule="evenodd" clip-rule="evenodd" d="M0.3125 6.49985C0.3125 6.3258 0.38164 6.15888 0.504711 6.03581C0.627782 5.91274 0.794702 5.8436 0.96875 5.8436H16.4471L12.3166 1.71448C12.1934 1.59125 12.1242 1.42412 12.1242 1.24985C12.1242 1.07558 12.1934 0.908453 12.3166 0.785227C12.4399 0.662001 12.607 0.592773 12.7812 0.592773C12.9555 0.592773 13.1226 0.662001 13.2459 0.785227L18.4959 6.03523C18.557 6.09619 18.6055 6.16861 18.6386 6.24833C18.6716 6.32806 18.6887 6.41353 18.6887 6.49985C18.6887 6.58617 18.6716 6.67164 18.6386 6.75137C18.6055 6.8311 18.557 6.90352 18.4959 6.96448L13.2459 12.2145C13.1226 12.3377 12.9555 12.4069 12.7812 12.4069C12.607 12.4069 12.4399 12.3377 12.3166 12.2145C12.1934 12.0913 12.1242 11.9241 12.1242 11.7499C12.1242 11.5756 12.1934 11.4085 12.3166 11.2852L16.4471 7.1561H0.96875C0.794702 7.1561 0.627782 7.08696 0.504711 6.96389C0.38164 6.84082 0.3125 6.6739 0.3125 6.49985Z" fill="#9F3D3D"/>
</svg>
