<svg width="25" height="25" viewBox="0 0 25 25" fill="none" xmlns="http://www.w3.org/2000/svg">
<path d="M10.4646 5.8541C11.0633 4.01148 13.6701 4.01148 14.2688 5.8541L14.6941 7.16319C14.9619 7.98724 15.7298 8.54516 16.5962 8.54516H17.9727C19.9101 8.54516 20.7157 11.0244 19.1483 12.1632L18.0347 12.9723C17.3337 13.4815 17.0404 14.3843 17.3081 15.2083L17.7335 16.5174C18.3322 18.36 16.2232 19.8923 14.6558 18.7535L13.5422 17.9444C12.8413 17.4351 11.8921 17.4351 11.1911 17.9444L10.0775 18.7535C8.51009 19.8923 6.40113 18.36 6.99984 16.5174L7.42518 15.2083C7.69293 14.3843 7.39962 13.4815 6.69864 12.9723L5.58506 12.1632C4.01764 11.0244 4.82319 8.54516 6.76063 8.54516H8.13709C9.00355 8.54516 9.77146 7.98724 10.0392 7.16319L10.4646 5.8541Z" fill="white"/>
</svg>
