<svg width="48" height="48" viewBox="0 0 48 48" fill="none" xmlns="http://www.w3.org/2000/svg">
<path d="M24 14.625C23.381 14.2768 22.6449 14.0647 21.8742 14.0126C21.1035 13.9605 20.3287 14.0704 19.6366 14.3299C18.9445 14.5895 18.3624 14.9884 17.9556 15.4821C17.5488 15.9758 17.3333 16.5447 17.3333 17.125V19H15.6667C15.2246 19 14.8007 19.1317 14.4882 19.3661C14.1756 19.6005 14 19.9185 14 20.25V30.25C14 31.2446 14.5268 32.1984 15.4645 32.9016C16.4021 33.6049 17.6739 34 19 34H29.8333C30.9384 34 31.9982 33.6708 32.7796 33.0847C33.561 32.4987 34 31.7038 34 30.875V20.25C34 19.9185 33.8244 19.6005 33.5118 19.3661C33.1993 19.1317 32.7754 19 32.3333 19H30.6667V17.125C30.6667 16.5447 30.4512 15.9758 30.0444 15.4821C29.6376 14.9884 29.0555 14.5895 28.3634 14.3299C27.6713 14.0704 26.8965 13.9605 26.1258 14.0126C25.3551 14.0647 24.619 14.2768 24 14.625ZM19 17.125C19 16.6277 19.2634 16.1508 19.7322 15.7992C20.2011 15.4475 20.837 15.25 21.5 15.25C22.163 15.25 22.7989 15.4475 23.2678 15.7992C23.7366 16.1508 24 16.6277 24 17.125V19H19V17.125ZM25.1117 15.565C25.4882 15.3764 25.9259 15.2681 26.3781 15.2515C26.8303 15.235 27.28 15.3108 27.6792 15.471C28.0784 15.6312 28.4122 15.8696 28.6448 16.1609C28.8774 16.4522 29.0002 16.7854 29 17.125V19H25.6667V17.125C25.6667 16.5575 25.465 16.025 25.1117 15.565ZM19 32.75C18.1159 32.75 17.2681 32.4866 16.643 32.0178C16.0179 31.5489 15.6667 30.913 15.6667 30.25V20.25H25.6667V30.875C25.6667 31.5787 25.9767 32.2275 26.5 32.75H19ZM32.3333 30.875C32.3333 31.3723 32.0699 31.8492 31.6011 32.2008C31.1323 32.5525 30.4964 32.75 29.8333 32.75C29.1703 32.75 28.5344 32.5525 28.0656 32.2008C27.5967 31.8492 27.3333 31.3723 27.3333 30.875V20.25H32.3333V30.875Z" fill="black"/>
<circle cx="24" cy="24" r="23.5" stroke="black"/>
</svg>
