<svg width="25" height="25" viewBox="0 0 25 25" fill="none" xmlns="http://www.w3.org/2000/svg">
<path d="M10.4646 5.8541C11.0633 4.01148 13.6701 4.01148 14.2688 5.8541L14.6941 7.16319C14.9619 7.98724 15.7298 8.54516 16.5962 8.54516H17.9727C19.9101 8.54516 20.7157 11.0244 19.1483 12.1632L18.0347 12.9723C17.3337 13.4815 17.0404 14.3843 17.3081 15.2083L17.7335 16.5174C18.3322 18.36 16.2232 19.8923 14.6558 18.7535L13.5422 17.9444C12.8413 17.4351 11.8921 17.4351 11.1911 17.9444L10.0775 18.7535C8.51009 19.8923 6.40113 18.36 6.99984 16.5174L7.42518 15.2083C7.69293 14.3843 7.39962 13.4815 6.69864 12.9723L5.58506 12.1632C4.01764 11.0244 4.82319 8.54516 6.76063 8.54516H8.13709C9.00355 8.54516 9.77146 7.98724 10.0392 7.16319L10.4646 5.8541Z" fill="white"/>
<mask id="path-2-inside-1" fill="white">
<path fill-rule="evenodd" clip-rule="evenodd" d="M12 4.50464C11.3314 4.6242 10.718 5.07404 10.4646 5.85414L10.0392 7.16323C9.77145 7.98728 9.00354 8.5452 8.13709 8.5452H6.76063C4.82319 8.5452 4.01763 11.0244 5.58506 12.1632L6.69864 12.9723C7.39961 13.4816 7.69293 14.3843 7.42518 15.2084L6.99983 16.5174C6.40113 18.3601 8.51009 19.8923 10.0775 18.7535L11.1911 17.9445C11.4373 17.7656 11.7141 17.6495 12 17.5963V4.50464Z"/>
</mask>
<path fill-rule="evenodd" clip-rule="evenodd" d="M12 4.50464C11.3314 4.6242 10.718 5.07404 10.4646 5.85414L10.0392 7.16323C9.77145 7.98728 9.00354 8.5452 8.13709 8.5452H6.76063C4.82319 8.5452 4.01763 11.0244 5.58506 12.1632L6.69864 12.9723C7.39961 13.4816 7.69293 14.3843 7.42518 15.2084L6.99983 16.5174C6.40113 18.3601 8.51009 19.8923 10.0775 18.7535L11.1911 17.9445C11.4373 17.7656 11.7141 17.6495 12 17.5963V4.50464Z" fill="#FF9A00"/>
<path d="M10.4646 5.85414L11.4156 6.16316L11.4156 6.16316L10.4646 5.85414ZM12 4.50464H13V3.30994L11.824 3.52026L12 4.50464ZM10.0392 7.16323L10.9903 7.47225L10.9903 7.47225L10.0392 7.16323ZM5.58506 12.1632L4.99728 12.9722L4.99728 12.9722L5.58506 12.1632ZM6.69864 12.9723L7.28642 12.1633L7.28642 12.1633L6.69864 12.9723ZM7.42518 15.2084L8.37624 15.5174L8.37624 15.5174L7.42518 15.2084ZM6.99983 16.5174L6.04878 16.2084L6.04878 16.2084L6.99983 16.5174ZM10.0775 18.7535L9.48973 17.9445L9.48973 17.9445L10.0775 18.7535ZM11.1911 17.9445L10.6033 17.1354L11.1911 17.9445ZM12 17.5963L12.183 18.5794L13 18.4273V17.5963H12ZM11.4156 6.16316C11.5458 5.76253 11.84 5.54912 12.176 5.48902L11.824 3.52026C10.8229 3.69928 9.89027 4.38554 9.5135 5.54512L11.4156 6.16316ZM10.9903 7.47225L11.4156 6.16316L9.5135 5.54512L9.08815 6.85421L10.9903 7.47225ZM8.13709 9.5452C9.43677 9.5452 10.5886 8.70831 10.9903 7.47225L9.08815 6.85421C8.95427 7.26624 8.57032 7.5452 8.13709 7.5452V9.5452ZM6.76063 9.5452H8.13709V7.5452H6.76063V9.5452ZM6.17285 11.3542C5.38913 10.7848 5.79191 9.5452 6.76063 9.5452V7.5452C3.85446 7.5452 2.64613 11.264 4.99728 12.9722L6.17285 11.3542ZM7.28642 12.1633L6.17285 11.3542L4.99728 12.9722L6.11085 13.7813L7.28642 12.1633ZM8.37624 15.5174C8.77786 14.2813 8.33789 12.9272 7.28642 12.1633L6.11085 13.7813C6.46134 14.036 6.608 14.4873 6.47412 14.8993L8.37624 15.5174ZM7.95089 16.8265L8.37624 15.5174L6.47412 14.8993L6.04878 16.2084L7.95089 16.8265ZM9.48973 17.9445C8.70602 18.5139 7.65154 17.7478 7.95089 16.8265L6.04878 16.2084C5.15072 18.9724 8.31416 21.2707 10.6653 19.5625L9.48973 17.9445ZM10.6033 17.1354L9.48973 17.9445L10.6653 19.5625L11.7789 18.7535L10.6033 17.1354ZM11.817 16.6132C11.3878 16.6931 10.9722 16.8674 10.6033 17.1354L11.7789 18.7535C11.9024 18.6637 12.0404 18.606 12.183 18.5794L11.817 16.6132ZM13 17.5963V4.50464H11V17.5963H13Z" fill="#FF9A00" mask="url(#path-2-inside-1)"/>
</svg>
