<svg width="49" height="49" viewBox="0 0 49 49" fill="none" xmlns="http://www.w3.org/2000/svg">
<path d="M2.04165 42.875H32.6871V44.8759C32.6871 46.0192 31.7683 46.9379 30.625 46.9379H4.10374C2.9604 46.9379 2.04165 46.0192 2.04165 44.8759V42.875ZM41.8337 47.5913L32.6667 38.4446V38.7917H2.04165V34.7084H28.9304L24.8471 30.625H2.04165C2.04165 24.01 7.06416 20.0696 13.0258 18.8038L1.38832 7.16627L4.28749 4.28752L26.5417 26.5417L30.625 30.625L44.7125 44.7125L41.8337 47.5913ZM20.7637 26.5417L16.6804 22.4584C13.7812 22.5809 9.49374 23.6017 7.39082 26.5417H20.7637ZM46.9583 10.2084H36.75V2.04169H32.6667V10.2084H22.4583L22.9279 14.2917H42.4462L40.4046 34.6471L44.1408 38.3834L46.9583 10.2084Z" fill="white"/>
</svg>
