<svg width="56" height="56" viewBox="0 0 56 56" fill="none" xmlns="http://www.w3.org/2000/svg">
<path d="M26 14.625C25.381 14.2768 24.6449 14.0647 23.8742 14.0126C23.1035 13.9605 22.3287 14.0704 21.6366 14.3299C20.9445 14.5895 20.3624 14.9884 19.9556 15.4821C19.5488 15.9758 19.3333 16.5447 19.3333 17.125V19H17.6667C17.2246 19 16.8007 19.1317 16.4882 19.3661C16.1756 19.6005 16 19.9185 16 20.25V30.25C16 31.2446 16.5268 32.1984 17.4645 32.9016C18.4021 33.6049 19.6739 34 21 34H31.8333C32.9384 34 33.9982 33.6708 34.7796 33.0847C35.561 32.4987 36 31.7038 36 30.875V20.25C36 19.9185 35.8244 19.6005 35.5118 19.3661C35.1993 19.1317 34.7754 19 34.3333 19H32.6667V17.125C32.6667 16.5447 32.4512 15.9758 32.0444 15.4821C31.6376 14.9884 31.0555 14.5895 30.3634 14.3299C29.6713 14.0704 28.8965 13.9605 28.1258 14.0126C27.3551 14.0647 26.619 14.2768 26 14.625ZM21 17.125C21 16.6277 21.2634 16.1508 21.7322 15.7992C22.2011 15.4475 22.837 15.25 23.5 15.25C24.163 15.25 24.7989 15.4475 25.2678 15.7992C25.7366 16.1508 26 16.6277 26 17.125V19H21V17.125ZM27.1117 15.565C27.4882 15.3764 27.9259 15.2681 28.3781 15.2515C28.8303 15.235 29.28 15.3108 29.6792 15.471C30.0784 15.6312 30.4122 15.8696 30.6448 16.1609C30.8774 16.4522 31.0002 16.7854 31 17.125V19H27.6667V17.125C27.6667 16.5575 27.465 16.025 27.1117 15.565ZM21 32.75C20.1159 32.75 19.2681 32.4866 18.643 32.0178C18.0179 31.5489 17.6667 30.913 17.6667 30.25V20.25H27.6667V30.875C27.6667 31.5787 27.9767 32.2275 28.5 32.75H21ZM34.3333 30.875C34.3333 31.3723 34.0699 31.8492 33.6011 32.2008C33.1323 32.5525 32.4964 32.75 31.8333 32.75C31.1703 32.75 30.5344 32.5525 30.0656 32.2008C29.5967 31.8492 29.3333 31.3723 29.3333 30.875V20.25H34.3333V30.875Z" fill="black"/>
<g filter="url(#filter0_d)">
<circle cx="26" cy="24" r="23.5" stroke="black" shape-rendering="crispEdges"/>
</g>
<defs>
<filter id="filter0_d" x="0" y="0" width="56" height="56" filterUnits="userSpaceOnUse" color-interpolation-filters="sRGB">
<feFlood flood-opacity="0" result="BackgroundImageFix"/>
<feColorMatrix in="SourceAlpha" type="matrix" values="0 0 0 0 0 0 0 0 0 0 0 0 0 0 0 0 0 0 127 0" result="hardAlpha"/>
<feOffset dx="2" dy="4"/>
<feGaussianBlur stdDeviation="2"/>
<feComposite in2="hardAlpha" operator="out"/>
<feColorMatrix type="matrix" values="0 0 0 0 0 0 0 0 0 0 0 0 0 0 0 0 0 0 0.25 0"/>
<feBlend mode="normal" in2="BackgroundImageFix" result="effect1_dropShadow"/>
<feBlend mode="normal" in="SourceGraphic" in2="effect1_dropShadow" result="shape"/>
</filter>
</defs>
</svg>
