<svg width="202" height="65" viewBox="0 0 202 65" fill="none" xmlns="http://www.w3.org/2000/svg">
<path d="M22.1437 60.1599C20.3532 61.848 15.8752 64.5996 11.8926 60.7243C6.14113 55.1277 9.06474 34.2056 22.1436 18.3486C24.9533 14.9421 27.9811 12.5115 34.6858 11.1851C50.1411 8.12774 70.666 11.259 79.2749 22.1934M22.1437 60.1599C41.1155 53.6909 79.6575 40.2817 82.051 38.3973C84.0268 36.8418 86.3126 26.3234 79.2749 22.1934M22.1437 60.1599C22.6385 59.3288 23.1628 58.4719 23.7134 57.5943M59.4413 19.6865C69.8313 16.9354 75.6554 20.0693 79.2749 22.1934M59.4413 19.6865C57.318 20.2487 54.8724 21.654 52.2499 23.6605M59.4413 19.6865C59.7641 18.9117 59.654 16.852 56.631 14.8114C54.792 12.4573 50.6909 16.1887 48.8702 18.3486M26.6692 53.0614C28.7998 49.9074 31.1745 46.6121 33.6763 43.3704M26.6692 53.0614C24.8646 51.8895 22.6746 50.1715 21.2537 48.4191M26.6692 53.0614C25.6201 54.6144 24.6302 56.1331 23.7134 57.5943M33.6763 43.3704C33.8384 42.4135 32.7724 40.9808 27.9811 41.3958M33.6763 43.3704C37.2207 38.7777 41.0201 34.2923 44.7424 30.468M27.9811 41.3958C26.8087 41.4974 25.4131 41.7096 23.7579 42.0665C22.3493 42.3703 21.3682 42.7987 20.7319 43.3153M27.9811 41.3958C28.2247 38.8589 27.8471 34.846 25.2001 34.4434M20.7319 43.3153C18.818 41.9485 16.3853 38.4318 21.9662 35.2997C23.3044 34.5487 24.3651 34.3165 25.2001 34.4434M20.7319 43.3153C19.0976 44.6421 19.7383 46.5502 21.2537 48.4191M25.2001 34.4434C25.0898 31.541 25.7962 26.1116 29.5041 27.6133C30.443 27.9936 31.0876 28.5314 31.5119 29.1516M44.7424 30.468C43.139 32.217 39.7715 34.723 39.1289 30.7553C39.0873 30.4985 39.0285 30.2795 38.9542 30.0952M44.7424 30.468C47.3186 27.821 49.8579 25.4907 52.2499 23.6605M21.2537 48.4191C18.2081 50.4577 13.3229 55.028 18.1476 57C22.9723 58.9721 23.8684 58.2179 23.7134 57.5943M31.5119 29.1516C32.7633 30.9804 32.0996 33.526 31.4238 34.8635C33.5755 32.0366 37.8802 27.4333 38.9542 30.0952M31.5119 29.1516C31.8671 28.4287 32.3288 27.5773 32.8536 26.7264M38.9542 30.0952C39.2955 29.5483 39.688 28.5906 39.8027 27.4397M52.2499 23.6605L49.0797 22.431M39.8027 27.4397C39.9321 26.1417 39.7083 24.5981 38.6593 23.1212C37.6102 21.6444 36.1029 22.5365 34.6858 24.1733M39.8027 27.4397C41.4493 28.4492 44.2593 29.4251 42.3272 25.2534C40.3951 21.0818 43.9103 20.814 45.9094 21.2015L49.0797 22.431M34.6858 24.1733C34.0389 24.9206 33.4107 25.8232 32.8536 26.7264M34.6858 24.1733C35.4195 22.9288 36.5104 21.3172 37.7806 19.8027M49.0797 22.431C49.4044 21.5231 49.5843 19.9064 48.8702 18.3486M32.8536 26.7264C30.5914 24.7396 27.0403 20.5082 30.9341 19.4772C34.828 18.4461 37.1209 19.2646 37.7806 19.8027M37.7806 19.8027C40.2635 16.8418 43.431 14.252 45.9517 15.5008C47.4911 16.2635 48.3861 17.2925 48.8702 18.3486" stroke="black"/>
<path d="M105.424 30.616C105.424 30.936 104.632 31.096 103.048 31.096C101.464 31.096 100.672 30.936 100.672 30.616V18.568H97.792C97.52 18.568 97.328 18.2 97.216 17.464C97.168 17.112 97.144 16.752 97.144 16.384C97.144 16.016 97.168 15.656 97.216 15.304C97.328 14.568 97.52 14.2 97.792 14.2H108.232C108.504 14.2 108.696 14.568 108.808 15.304C108.856 15.656 108.88 16.016 108.88 16.384C108.88 16.752 108.856 17.112 108.808 17.464C108.696 18.2 108.504 18.568 108.232 18.568H105.424V30.616ZM117.375 31.24C115.135 31.24 113.303 30.504 111.879 29.032C110.471 27.56 109.767 25.416 109.767 22.6C109.767 19.768 110.479 17.624 111.903 16.168C113.343 14.712 115.191 13.984 117.447 13.984C119.719 13.984 121.551 14.704 122.943 16.144C124.335 17.568 125.031 19.736 125.031 22.648C125.031 25.544 124.319 27.704 122.895 29.128C121.471 30.536 119.631 31.24 117.375 31.24ZM117.399 18.592C116.631 18.592 115.983 18.944 115.455 19.648C114.943 20.352 114.687 21.344 114.687 22.624C114.687 23.888 114.935 24.864 115.431 25.552C115.927 26.224 116.575 26.56 117.375 26.56C118.191 26.56 118.847 26.216 119.343 25.528C119.855 24.84 120.111 23.856 120.111 22.576C120.111 21.296 119.847 20.312 119.319 19.624C118.807 18.936 118.167 18.592 117.399 18.592ZM131.542 30.664C131.542 30.92 130.782 31.048 129.262 31.048C127.726 31.048 126.958 30.928 126.958 30.688V15.04C126.958 14.48 127.254 14.2 127.846 14.2H132.43C136.638 14.2 138.742 15.84 138.742 19.12C138.742 20.112 138.55 21.016 138.166 21.832C137.782 22.632 137.238 23.272 136.534 23.752L139.558 28.792C139.43 29.176 139.014 29.616 138.31 30.112C137.35 30.8 136.558 31.144 135.934 31.144C135.31 31.144 134.846 30.92 134.542 30.472L132.286 25.216H131.542V30.664ZM131.542 18.448V22.048H131.662C133.182 22.048 133.942 21.416 133.942 20.152C133.942 19.576 133.79 19.152 133.486 18.88C133.198 18.592 132.718 18.448 132.046 18.448H131.542ZM152.394 31.048C151.002 31.048 150.25 30.824 150.138 30.376L149.346 27.28H145.53L144.834 30.256C144.738 30.752 143.97 31 142.53 31C141.762 31 141.194 30.96 140.826 30.88C140.458 30.784 140.274 30.712 140.274 30.664L144.522 14.416C144.522 14.288 145.618 14.224 147.81 14.224C150.002 14.224 151.098 14.288 151.098 14.416L155.25 30.688C155.25 30.8 154.882 30.888 154.146 30.952C153.41 31.016 152.826 31.048 152.394 31.048ZM146.13 24.232H148.65L147.57 19.264H147.426L146.13 24.232ZM169.993 30.472C169.993 30.808 169.241 30.976 167.737 30.976C166.233 30.976 165.417 30.856 165.289 30.616L161.281 23.128V30.592C161.281 30.88 160.537 31.024 159.049 31.024C157.577 31.024 156.841 30.88 156.841 30.592V14.536C156.841 14.296 157.473 14.176 158.737 14.176C159.233 14.176 159.809 14.224 160.465 14.32C161.137 14.4 161.545 14.56 161.689 14.8L165.529 22.192V14.656C165.529 14.352 166.273 14.2 167.761 14.2C169.249 14.2 169.993 14.352 169.993 14.656V30.472ZM178.355 14.344C178.355 14.104 178.987 13.984 180.251 13.984C180.683 13.984 181.179 14.016 181.739 14.08C182.315 14.128 182.603 14.2 182.603 14.296V26.944H183.443C183.843 26.944 184.107 27.304 184.235 28.024C184.267 28.232 184.283 28.52 184.283 28.888C184.283 29.24 184.171 29.672 183.947 30.184C183.627 30.888 183.115 31.24 182.411 31.24C181.883 31.24 181.411 31.136 180.995 30.928C180.595 30.72 180.323 30.504 180.179 30.28L179.963 29.968C179.083 30.816 177.979 31.24 176.651 31.24C175.323 31.24 174.187 30.688 173.243 29.584C172.299 28.48 171.827 26.944 171.827 24.976C171.827 22.992 172.323 21.464 173.315 20.392C174.307 19.304 175.547 18.76 177.035 18.76C177.467 18.76 177.907 18.808 178.355 18.904V14.344ZM177.563 22.6C176.667 22.6 176.219 23.408 176.219 25.024C176.219 25.84 176.347 26.432 176.603 26.8C176.859 27.152 177.139 27.328 177.443 27.328C177.763 27.328 178.067 27.192 178.355 26.92V22.84C178.083 22.68 177.819 22.6 177.563 22.6ZM193.101 31.24C190.861 31.24 189.029 30.504 187.605 29.032C186.197 27.56 185.493 25.416 185.493 22.6C185.493 19.768 186.205 17.624 187.629 16.168C189.069 14.712 190.917 13.984 193.173 13.984C195.445 13.984 197.277 14.704 198.669 16.144C200.061 17.568 200.757 19.736 200.757 22.648C200.757 25.544 200.045 27.704 198.621 29.128C197.197 30.536 195.357 31.24 193.101 31.24ZM193.125 18.592C192.357 18.592 191.709 18.944 191.181 19.648C190.669 20.352 190.413 21.344 190.413 22.624C190.413 23.888 190.661 24.864 191.157 25.552C191.653 26.224 192.301 26.56 193.101 26.56C193.917 26.56 194.573 26.216 195.069 25.528C195.581 24.84 195.837 23.856 195.837 22.576C195.837 21.296 195.573 20.312 195.045 19.624C194.533 18.936 193.893 18.592 193.125 18.592Z" fill="black"/>
<path d="M101.338 51.748C101.338 51.94 100.768 52.036 99.628 52.036C98.476 52.036 97.9 51.946 97.9 51.766V40.03C97.9 39.61 98.122 39.4 98.566 39.4H102.004C105.16 39.4 106.738 40.63 106.738 43.09C106.738 43.834 106.594 44.512 106.306 45.124C106.018 45.724 105.61 46.204 105.082 46.564L107.35 50.344C107.254 50.632 106.942 50.962 106.414 51.334C105.694 51.85 105.1 52.108 104.632 52.108C104.164 52.108 103.816 51.94 103.588 51.604L101.896 47.662H101.338V51.748ZM101.338 42.586V45.286H101.428C102.568 45.286 103.138 44.812 103.138 43.864C103.138 43.432 103.024 43.114 102.796 42.91C102.58 42.694 102.22 42.586 101.716 42.586H101.338ZM115.231 51.514C114.475 51.958 113.503 52.18 112.315 52.18C111.127 52.18 110.125 51.778 109.309 50.974C108.493 50.158 108.085 49.036 108.085 47.608C108.085 46.168 108.475 45.01 109.255 44.134C110.047 43.258 111.043 42.82 112.243 42.82C113.443 42.82 114.367 43.126 115.015 43.738C115.675 44.35 116.005 45.094 116.005 45.97C116.005 47.914 114.889 48.886 112.657 48.886H111.415C111.415 49.246 111.511 49.498 111.703 49.642C111.907 49.774 112.201 49.84 112.585 49.84C113.425 49.84 114.223 49.648 114.979 49.264C114.991 49.252 115.045 49.336 115.141 49.516C115.429 50.032 115.573 50.47 115.573 50.83C115.573 51.178 115.459 51.406 115.231 51.514ZM112.981 46.312C112.981 45.808 112.735 45.556 112.243 45.556C112.015 45.556 111.817 45.628 111.649 45.772C111.493 45.904 111.415 46.102 111.415 46.366V46.924H112.387C112.783 46.924 112.981 46.72 112.981 46.312ZM117.559 48.76C118.531 49.348 119.299 49.642 119.863 49.642C120.223 49.642 120.403 49.516 120.403 49.264C120.403 49.084 120.091 48.85 119.467 48.562C117.967 47.95 117.217 46.948 117.217 45.556C117.217 44.668 117.541 43.99 118.189 43.522C118.837 43.054 119.611 42.82 120.511 42.82C121.423 42.82 122.191 42.916 122.815 43.108C123.451 43.3 123.769 43.552 123.769 43.864C123.769 44.128 123.637 44.476 123.373 44.908C123.121 45.34 122.947 45.574 122.851 45.61C122.335 45.322 121.777 45.178 121.177 45.178C120.853 45.178 120.691 45.292 120.691 45.52C120.691 45.664 120.751 45.79 120.871 45.898C121.003 45.994 121.237 46.12 121.573 46.276C121.909 46.42 122.185 46.552 122.401 46.672C122.629 46.792 122.881 46.96 123.157 47.176C123.733 47.632 124.021 48.226 124.021 48.958C124.021 49.918 123.703 50.698 123.067 51.298C122.431 51.886 121.471 52.18 120.187 52.18C119.335 52.18 118.561 52.036 117.865 51.748C117.169 51.46 116.821 51.064 116.821 50.56C116.821 50.224 116.899 49.87 117.055 49.498C117.223 49.126 117.391 48.88 117.559 48.76ZM129.425 51.892C129.425 52.036 128.921 52.108 127.913 52.108C126.713 52.06 126.113 51.982 126.113 51.874V45.502H125.195C124.955 45.502 124.835 45.088 124.835 44.26C124.835 44.044 124.853 43.78 124.889 43.468C124.937 43.156 125.027 43 125.159 43H126.113V41.416C126.113 41.176 126.617 41.056 127.625 41.056C128.645 41.056 129.155 41.152 129.155 41.344V42.496L129.173 43H130.703C130.907 43 131.009 43.42 131.009 44.26C131.009 45.1 130.907 45.52 130.703 45.52H129.425V51.892ZM133.046 45.466C132.71 44.866 132.542 44.38 132.542 44.008C132.542 43.624 132.644 43.378 132.848 43.27C133.532 42.97 134.468 42.82 135.656 42.82C136.856 42.82 137.702 43.102 138.194 43.666C138.686 44.218 138.932 45.04 138.932 46.132V48.976H139.544C139.748 48.976 139.904 49.096 140.012 49.336C140.132 49.576 140.192 49.906 140.192 50.326C140.192 50.746 140.084 51.16 139.868 51.568C139.664 51.976 139.382 52.18 139.022 52.18C138.374 52.18 137.852 52.006 137.456 51.658C137.276 51.514 137.138 51.34 137.042 51.136C136.49 51.832 135.632 52.18 134.468 52.18C133.592 52.18 132.854 51.868 132.254 51.244C131.654 50.62 131.354 49.882 131.354 49.03C131.354 47.074 132.524 46.096 134.864 46.096H135.854V45.916C135.854 45.604 135.8 45.406 135.692 45.322C135.596 45.226 135.362 45.178 134.99 45.178C134.534 45.178 133.886 45.274 133.046 45.466ZM134.486 48.778C134.486 49.042 134.558 49.246 134.702 49.39C134.846 49.522 135.026 49.588 135.242 49.588C135.47 49.588 135.674 49.498 135.854 49.318V47.932H135.35C134.774 47.932 134.486 48.214 134.486 48.778ZM141.12 43.108C141.12 42.976 141.636 42.91 142.668 42.91C143.7 42.91 144.216 42.976 144.216 43.108V48.364C144.216 48.964 144.408 49.264 144.792 49.264C145.08 49.264 145.404 49.138 145.764 48.886V43.108C145.764 42.988 146.274 42.928 147.294 42.928C148.314 42.928 148.824 42.988 148.824 43.108V49.012H149.292C149.7 49.012 149.904 49.402 149.904 50.182C149.904 50.578 149.82 50.98 149.652 51.388C149.412 51.916 149.088 52.18 148.68 52.18C147.876 52.18 147.282 51.85 146.898 51.19L146.88 51.208C146.148 51.856 145.362 52.18 144.522 52.18C143.358 52.18 142.5 51.892 141.948 51.316C141.396 50.728 141.12 49.762 141.12 48.418V43.108ZM154.943 51.982C154.943 52.066 154.397 52.108 153.305 52.108C152.213 52.084 151.667 52.036 151.667 51.964V45.988H151.181C150.989 45.988 150.833 45.874 150.713 45.646C150.605 45.406 150.551 45.112 150.551 44.764C150.551 43.468 150.935 42.82 151.703 42.82C152.243 42.82 152.693 42.988 153.053 43.324C153.413 43.648 153.593 44.02 153.593 44.44C153.845 43.948 154.181 43.558 154.601 43.27C155.033 42.97 155.471 42.82 155.915 42.82C156.611 42.82 157.031 43 157.175 43.36C157.211 43.456 157.229 43.6 157.229 43.792C157.229 43.972 157.169 44.302 157.049 44.782C156.941 45.262 156.827 45.61 156.707 45.826C156.587 46.042 156.515 46.15 156.491 46.15C156.467 46.15 156.353 46.108 156.149 46.024C155.957 45.928 155.783 45.88 155.627 45.88C155.171 45.88 154.943 46.24 154.943 46.96V51.982ZM159.272 45.466C158.936 44.866 158.768 44.38 158.768 44.008C158.768 43.624 158.87 43.378 159.074 43.27C159.758 42.97 160.694 42.82 161.882 42.82C163.082 42.82 163.928 43.102 164.42 43.666C164.912 44.218 165.158 45.04 165.158 46.132V48.976H165.77C165.974 48.976 166.13 49.096 166.238 49.336C166.358 49.576 166.418 49.906 166.418 50.326C166.418 50.746 166.31 51.16 166.094 51.568C165.89 51.976 165.608 52.18 165.248 52.18C164.6 52.18 164.078 52.006 163.682 51.658C163.502 51.514 163.364 51.34 163.268 51.136C162.716 51.832 161.858 52.18 160.694 52.18C159.818 52.18 159.08 51.868 158.48 51.244C157.88 50.62 157.58 49.882 157.58 49.03C157.58 47.074 158.75 46.096 161.09 46.096H162.08V45.916C162.08 45.604 162.026 45.406 161.918 45.322C161.822 45.226 161.588 45.178 161.216 45.178C160.76 45.178 160.112 45.274 159.272 45.466ZM160.712 48.778C160.712 49.042 160.784 49.246 160.928 49.39C161.072 49.522 161.252 49.588 161.468 49.588C161.696 49.588 161.9 49.498 162.08 49.318V47.932H161.576C161 47.932 160.712 48.214 160.712 48.778ZM171.199 51.892C171.199 51.976 170.767 52.018 169.903 52.018C168.703 51.982 168.103 51.916 168.103 51.82V45.988H167.635C167.323 45.988 167.119 45.724 167.023 45.196C166.999 45.04 166.987 44.884 166.987 44.728C166.987 44.356 167.059 43.984 167.203 43.612C167.419 43.084 167.755 42.82 168.211 42.82C168.667 42.82 169.075 42.928 169.435 43.144C169.795 43.36 170.035 43.576 170.155 43.792C170.911 43.144 171.811 42.82 172.855 42.82C173.899 42.82 174.655 43.102 175.123 43.666C175.591 44.23 175.825 45.154 175.825 46.438V51.838C175.825 51.982 175.309 52.054 174.277 52.054C173.257 52.054 172.747 51.982 172.747 51.838V46.636C172.747 46.036 172.537 45.736 172.117 45.736C171.997 45.736 171.829 45.79 171.613 45.898C171.397 45.994 171.259 46.066 171.199 46.114V51.892ZM181.491 51.892C181.491 52.036 180.987 52.108 179.979 52.108C178.779 52.06 178.179 51.982 178.179 51.874V45.502H177.261C177.021 45.502 176.901 45.088 176.901 44.26C176.901 44.044 176.919 43.78 176.955 43.468C177.003 43.156 177.093 43 177.225 43H178.179V41.416C178.179 41.176 178.683 41.056 179.691 41.056C180.711 41.056 181.221 41.152 181.221 41.344V42.496L181.239 43H182.769C182.973 43 183.075 43.42 183.075 44.26C183.075 45.1 182.973 45.52 182.769 45.52H181.491V51.892Z" fill="#747474"/>
</svg>
