<svg width="203" height="66" viewBox="0 0 203 66" fill="none" xmlns="http://www.w3.org/2000/svg">
<path d="M23.1437 61.1597C21.3532 62.8478 16.8752 65.5995 12.8926 61.7241C7.14113 56.1275 10.0647 35.2054 23.1436 19.3485C25.9533 15.9419 28.9811 13.5113 35.6858 12.1849C51.1411 9.12755 71.666 12.2588 80.2749 23.1932M23.1437 61.1597C42.1155 54.6907 80.6575 41.2816 83.051 39.3971C85.0268 37.8417 87.3126 27.3232 80.2749 23.1932M23.1437 61.1597C23.6385 60.3286 24.1628 59.4717 24.7134 58.5941M60.4413 20.6863C70.8313 17.9352 76.6554 21.0691 80.2749 23.1932M60.4413 20.6863C58.318 21.2485 55.8724 22.6538 53.2499 24.6603M60.4413 20.6863C60.7641 19.9115 60.654 17.8518 57.631 15.8112C55.792 13.4572 51.6909 17.1885 49.8702 19.3485M27.6692 54.0613C29.7998 50.9072 32.1745 47.612 34.6763 44.3702M27.6692 54.0613C25.8646 52.8893 23.6746 51.1713 22.2537 49.4189M27.6692 54.0613C26.6201 55.6142 25.6302 57.1329 24.7134 58.5941M34.6763 44.3702C34.8384 43.4133 33.7724 41.9806 28.9811 42.3956M34.6763 44.3702C38.2207 39.7775 42.0201 35.2922 45.7424 31.4678M28.9811 42.3956C27.8087 42.4972 26.4131 42.7094 24.7579 43.0663C23.3493 43.3701 22.3682 43.7985 21.7319 44.3151M28.9811 42.3956C29.2247 39.8588 28.8471 35.8458 26.2001 35.4433M21.7319 44.3151C19.818 42.9483 17.3853 39.4316 22.9662 36.2995C24.3044 35.5485 25.3651 35.3163 26.2001 35.4433M21.7319 44.3151C20.0976 45.6419 20.7383 47.55 22.2537 49.4189M26.2001 35.4433C26.0898 32.5409 26.7962 27.1115 30.5041 28.6131C31.443 28.9934 32.0876 29.5312 32.5119 30.1514M45.7424 31.4678C44.139 33.2168 40.7715 35.7228 40.1289 31.7551C40.0873 31.4983 40.0285 31.2793 39.9542 31.095M45.7424 31.4678C48.3186 28.8208 50.8579 26.4905 53.2499 24.6603M22.2537 49.4189C19.2081 51.4576 14.3229 56.0278 19.1476 57.9998C23.9723 59.9719 24.8684 59.2177 24.7134 58.5941M32.5119 30.1514C33.7633 31.9802 33.0996 34.5258 32.4238 35.8633C34.5755 33.0364 38.8802 28.4332 39.9542 31.095M32.5119 30.1514C32.8671 29.4285 33.3288 28.5771 33.8536 27.7262M39.9542 31.095C40.2955 30.5481 40.688 29.5904 40.8027 28.4396M53.2499 24.6603L50.0797 23.4308M40.8027 28.4396C40.9321 27.1415 40.7083 25.5979 39.6593 24.121C38.6102 22.6442 37.1029 23.5363 35.6858 25.1731M40.8027 28.4396C42.4493 29.449 45.2593 30.4249 43.3272 26.2532C41.3951 22.0816 44.9103 21.8138 46.9094 22.2013L50.0797 23.4308M35.6858 25.1731C35.0389 25.9204 34.4107 26.823 33.8536 27.7262M35.6858 25.1731C36.4195 23.9286 37.5104 22.317 38.7806 20.8025M50.0797 23.4308C50.4044 22.5229 50.5843 20.9062 49.8702 19.3485M33.8536 27.7262C31.5914 25.7394 28.0403 21.508 31.9341 20.477C35.828 19.446 38.1209 20.2644 38.7806 20.8025M38.7806 20.8025C41.2635 17.8417 44.431 15.2518 46.9517 16.5006C48.4911 17.2633 49.3861 18.2923 49.8702 19.3485" stroke="#FF8E28" stroke-opacity="0.62"/>
<path d="M106.424 31.616C106.424 31.936 105.632 32.096 104.048 32.096C102.464 32.096 101.672 31.936 101.672 31.616V19.568H98.792C98.52 19.568 98.328 19.2 98.216 18.464C98.168 18.112 98.144 17.752 98.144 17.384C98.144 17.016 98.168 16.656 98.216 16.304C98.328 15.568 98.52 15.2 98.792 15.2H109.232C109.504 15.2 109.696 15.568 109.808 16.304C109.856 16.656 109.88 17.016 109.88 17.384C109.88 17.752 109.856 18.112 109.808 18.464C109.696 19.2 109.504 19.568 109.232 19.568H106.424V31.616ZM118.375 32.24C116.135 32.24 114.303 31.504 112.879 30.032C111.471 28.56 110.767 26.416 110.767 23.6C110.767 20.768 111.479 18.624 112.903 17.168C114.343 15.712 116.191 14.984 118.447 14.984C120.719 14.984 122.551 15.704 123.943 17.144C125.335 18.568 126.031 20.736 126.031 23.648C126.031 26.544 125.319 28.704 123.895 30.128C122.471 31.536 120.631 32.24 118.375 32.24ZM118.399 19.592C117.631 19.592 116.983 19.944 116.455 20.648C115.943 21.352 115.687 22.344 115.687 23.624C115.687 24.888 115.935 25.864 116.431 26.552C116.927 27.224 117.575 27.56 118.375 27.56C119.191 27.56 119.847 27.216 120.343 26.528C120.855 25.84 121.111 24.856 121.111 23.576C121.111 22.296 120.847 21.312 120.319 20.624C119.807 19.936 119.167 19.592 118.399 19.592ZM132.542 31.664C132.542 31.92 131.782 32.048 130.262 32.048C128.726 32.048 127.958 31.928 127.958 31.688V16.04C127.958 15.48 128.254 15.2 128.846 15.2H133.43C137.638 15.2 139.742 16.84 139.742 20.12C139.742 21.112 139.55 22.016 139.166 22.832C138.782 23.632 138.238 24.272 137.534 24.752L140.558 29.792C140.43 30.176 140.014 30.616 139.31 31.112C138.35 31.8 137.558 32.144 136.934 32.144C136.31 32.144 135.846 31.92 135.542 31.472L133.286 26.216H132.542V31.664ZM132.542 19.448V23.048H132.662C134.182 23.048 134.942 22.416 134.942 21.152C134.942 20.576 134.79 20.152 134.486 19.88C134.198 19.592 133.718 19.448 133.046 19.448H132.542ZM153.394 32.048C152.002 32.048 151.25 31.824 151.138 31.376L150.346 28.28H146.53L145.834 31.256C145.738 31.752 144.97 32 143.53 32C142.762 32 142.194 31.96 141.826 31.88C141.458 31.784 141.274 31.712 141.274 31.664L145.522 15.416C145.522 15.288 146.618 15.224 148.81 15.224C151.002 15.224 152.098 15.288 152.098 15.416L156.25 31.688C156.25 31.8 155.882 31.888 155.146 31.952C154.41 32.016 153.826 32.048 153.394 32.048ZM147.13 25.232H149.65L148.57 20.264H148.426L147.13 25.232ZM170.993 31.472C170.993 31.808 170.241 31.976 168.737 31.976C167.233 31.976 166.417 31.856 166.289 31.616L162.281 24.128V31.592C162.281 31.88 161.537 32.024 160.049 32.024C158.577 32.024 157.841 31.88 157.841 31.592V15.536C157.841 15.296 158.473 15.176 159.737 15.176C160.233 15.176 160.809 15.224 161.465 15.32C162.137 15.4 162.545 15.56 162.689 15.8L166.529 23.192V15.656C166.529 15.352 167.273 15.2 168.761 15.2C170.249 15.2 170.993 15.352 170.993 15.656V31.472ZM179.355 15.344C179.355 15.104 179.987 14.984 181.251 14.984C181.683 14.984 182.179 15.016 182.739 15.08C183.315 15.128 183.603 15.2 183.603 15.296V27.944H184.443C184.843 27.944 185.107 28.304 185.235 29.024C185.267 29.232 185.283 29.52 185.283 29.888C185.283 30.24 185.171 30.672 184.947 31.184C184.627 31.888 184.115 32.24 183.411 32.24C182.883 32.24 182.411 32.136 181.995 31.928C181.595 31.72 181.323 31.504 181.179 31.28L180.963 30.968C180.083 31.816 178.979 32.24 177.651 32.24C176.323 32.24 175.187 31.688 174.243 30.584C173.299 29.48 172.827 27.944 172.827 25.976C172.827 23.992 173.323 22.464 174.315 21.392C175.307 20.304 176.547 19.76 178.035 19.76C178.467 19.76 178.907 19.808 179.355 19.904V15.344ZM178.563 23.6C177.667 23.6 177.219 24.408 177.219 26.024C177.219 26.84 177.347 27.432 177.603 27.8C177.859 28.152 178.139 28.328 178.443 28.328C178.763 28.328 179.067 28.192 179.355 27.92V23.84C179.083 23.68 178.819 23.6 178.563 23.6ZM194.101 32.24C191.861 32.24 190.029 31.504 188.605 30.032C187.197 28.56 186.493 26.416 186.493 23.6C186.493 20.768 187.205 18.624 188.629 17.168C190.069 15.712 191.917 14.984 194.173 14.984C196.445 14.984 198.277 15.704 199.669 17.144C201.061 18.568 201.757 20.736 201.757 23.648C201.757 26.544 201.045 28.704 199.621 30.128C198.197 31.536 196.357 32.24 194.101 32.24ZM194.125 19.592C193.357 19.592 192.709 19.944 192.181 20.648C191.669 21.352 191.413 22.344 191.413 23.624C191.413 24.888 191.661 25.864 192.157 26.552C192.653 27.224 193.301 27.56 194.101 27.56C194.917 27.56 195.573 27.216 196.069 26.528C196.581 25.84 196.837 24.856 196.837 23.576C196.837 22.296 196.573 21.312 196.045 20.624C195.533 19.936 194.893 19.592 194.125 19.592Z" fill="white"/>
<path d="M102.338 52.748C102.338 52.94 101.768 53.036 100.628 53.036C99.476 53.036 98.9 52.946 98.9 52.766V41.03C98.9 40.61 99.122 40.4 99.566 40.4H103.004C106.16 40.4 107.738 41.63 107.738 44.09C107.738 44.834 107.594 45.512 107.306 46.124C107.018 46.724 106.61 47.204 106.082 47.564L108.35 51.344C108.254 51.632 107.942 51.962 107.414 52.334C106.694 52.85 106.1 53.108 105.632 53.108C105.164 53.108 104.816 52.94 104.588 52.604L102.896 48.662H102.338V52.748ZM102.338 43.586V46.286H102.428C103.568 46.286 104.138 45.812 104.138 44.864C104.138 44.432 104.024 44.114 103.796 43.91C103.58 43.694 103.22 43.586 102.716 43.586H102.338ZM116.231 52.514C115.475 52.958 114.503 53.18 113.315 53.18C112.127 53.18 111.125 52.778 110.309 51.974C109.493 51.158 109.085 50.036 109.085 48.608C109.085 47.168 109.475 46.01 110.255 45.134C111.047 44.258 112.043 43.82 113.243 43.82C114.443 43.82 115.367 44.126 116.015 44.738C116.675 45.35 117.005 46.094 117.005 46.97C117.005 48.914 115.889 49.886 113.657 49.886H112.415C112.415 50.246 112.511 50.498 112.703 50.642C112.907 50.774 113.201 50.84 113.585 50.84C114.425 50.84 115.223 50.648 115.979 50.264C115.991 50.252 116.045 50.336 116.141 50.516C116.429 51.032 116.573 51.47 116.573 51.83C116.573 52.178 116.459 52.406 116.231 52.514ZM113.981 47.312C113.981 46.808 113.735 46.556 113.243 46.556C113.015 46.556 112.817 46.628 112.649 46.772C112.493 46.904 112.415 47.102 112.415 47.366V47.924H113.387C113.783 47.924 113.981 47.72 113.981 47.312ZM118.559 49.76C119.531 50.348 120.299 50.642 120.863 50.642C121.223 50.642 121.403 50.516 121.403 50.264C121.403 50.084 121.091 49.85 120.467 49.562C118.967 48.95 118.217 47.948 118.217 46.556C118.217 45.668 118.541 44.99 119.189 44.522C119.837 44.054 120.611 43.82 121.511 43.82C122.423 43.82 123.191 43.916 123.815 44.108C124.451 44.3 124.769 44.552 124.769 44.864C124.769 45.128 124.637 45.476 124.373 45.908C124.121 46.34 123.947 46.574 123.851 46.61C123.335 46.322 122.777 46.178 122.177 46.178C121.853 46.178 121.691 46.292 121.691 46.52C121.691 46.664 121.751 46.79 121.871 46.898C122.003 46.994 122.237 47.12 122.573 47.276C122.909 47.42 123.185 47.552 123.401 47.672C123.629 47.792 123.881 47.96 124.157 48.176C124.733 48.632 125.021 49.226 125.021 49.958C125.021 50.918 124.703 51.698 124.067 52.298C123.431 52.886 122.471 53.18 121.187 53.18C120.335 53.18 119.561 53.036 118.865 52.748C118.169 52.46 117.821 52.064 117.821 51.56C117.821 51.224 117.899 50.87 118.055 50.498C118.223 50.126 118.391 49.88 118.559 49.76ZM130.425 52.892C130.425 53.036 129.921 53.108 128.913 53.108C127.713 53.06 127.113 52.982 127.113 52.874V46.502H126.195C125.955 46.502 125.835 46.088 125.835 45.26C125.835 45.044 125.853 44.78 125.889 44.468C125.937 44.156 126.027 44 126.159 44H127.113V42.416C127.113 42.176 127.617 42.056 128.625 42.056C129.645 42.056 130.155 42.152 130.155 42.344V43.496L130.173 44H131.703C131.907 44 132.009 44.42 132.009 45.26C132.009 46.1 131.907 46.52 131.703 46.52H130.425V52.892ZM134.046 46.466C133.71 45.866 133.542 45.38 133.542 45.008C133.542 44.624 133.644 44.378 133.848 44.27C134.532 43.97 135.468 43.82 136.656 43.82C137.856 43.82 138.702 44.102 139.194 44.666C139.686 45.218 139.932 46.04 139.932 47.132V49.976H140.544C140.748 49.976 140.904 50.096 141.012 50.336C141.132 50.576 141.192 50.906 141.192 51.326C141.192 51.746 141.084 52.16 140.868 52.568C140.664 52.976 140.382 53.18 140.022 53.18C139.374 53.18 138.852 53.006 138.456 52.658C138.276 52.514 138.138 52.34 138.042 52.136C137.49 52.832 136.632 53.18 135.468 53.18C134.592 53.18 133.854 52.868 133.254 52.244C132.654 51.62 132.354 50.882 132.354 50.03C132.354 48.074 133.524 47.096 135.864 47.096H136.854V46.916C136.854 46.604 136.8 46.406 136.692 46.322C136.596 46.226 136.362 46.178 135.99 46.178C135.534 46.178 134.886 46.274 134.046 46.466ZM135.486 49.778C135.486 50.042 135.558 50.246 135.702 50.39C135.846 50.522 136.026 50.588 136.242 50.588C136.47 50.588 136.674 50.498 136.854 50.318V48.932H136.35C135.774 48.932 135.486 49.214 135.486 49.778ZM142.12 44.108C142.12 43.976 142.636 43.91 143.668 43.91C144.7 43.91 145.216 43.976 145.216 44.108V49.364C145.216 49.964 145.408 50.264 145.792 50.264C146.08 50.264 146.404 50.138 146.764 49.886V44.108C146.764 43.988 147.274 43.928 148.294 43.928C149.314 43.928 149.824 43.988 149.824 44.108V50.012H150.292C150.7 50.012 150.904 50.402 150.904 51.182C150.904 51.578 150.82 51.98 150.652 52.388C150.412 52.916 150.088 53.18 149.68 53.18C148.876 53.18 148.282 52.85 147.898 52.19L147.88 52.208C147.148 52.856 146.362 53.18 145.522 53.18C144.358 53.18 143.5 52.892 142.948 52.316C142.396 51.728 142.12 50.762 142.12 49.418V44.108ZM155.943 52.982C155.943 53.066 155.397 53.108 154.305 53.108C153.213 53.084 152.667 53.036 152.667 52.964V46.988H152.181C151.989 46.988 151.833 46.874 151.713 46.646C151.605 46.406 151.551 46.112 151.551 45.764C151.551 44.468 151.935 43.82 152.703 43.82C153.243 43.82 153.693 43.988 154.053 44.324C154.413 44.648 154.593 45.02 154.593 45.44C154.845 44.948 155.181 44.558 155.601 44.27C156.033 43.97 156.471 43.82 156.915 43.82C157.611 43.82 158.031 44 158.175 44.36C158.211 44.456 158.229 44.6 158.229 44.792C158.229 44.972 158.169 45.302 158.049 45.782C157.941 46.262 157.827 46.61 157.707 46.826C157.587 47.042 157.515 47.15 157.491 47.15C157.467 47.15 157.353 47.108 157.149 47.024C156.957 46.928 156.783 46.88 156.627 46.88C156.171 46.88 155.943 47.24 155.943 47.96V52.982ZM160.272 46.466C159.936 45.866 159.768 45.38 159.768 45.008C159.768 44.624 159.87 44.378 160.074 44.27C160.758 43.97 161.694 43.82 162.882 43.82C164.082 43.82 164.928 44.102 165.42 44.666C165.912 45.218 166.158 46.04 166.158 47.132V49.976H166.77C166.974 49.976 167.13 50.096 167.238 50.336C167.358 50.576 167.418 50.906 167.418 51.326C167.418 51.746 167.31 52.16 167.094 52.568C166.89 52.976 166.608 53.18 166.248 53.18C165.6 53.18 165.078 53.006 164.682 52.658C164.502 52.514 164.364 52.34 164.268 52.136C163.716 52.832 162.858 53.18 161.694 53.18C160.818 53.18 160.08 52.868 159.48 52.244C158.88 51.62 158.58 50.882 158.58 50.03C158.58 48.074 159.75 47.096 162.09 47.096H163.08V46.916C163.08 46.604 163.026 46.406 162.918 46.322C162.822 46.226 162.588 46.178 162.216 46.178C161.76 46.178 161.112 46.274 160.272 46.466ZM161.712 49.778C161.712 50.042 161.784 50.246 161.928 50.39C162.072 50.522 162.252 50.588 162.468 50.588C162.696 50.588 162.9 50.498 163.08 50.318V48.932H162.576C162 48.932 161.712 49.214 161.712 49.778ZM172.199 52.892C172.199 52.976 171.767 53.018 170.903 53.018C169.703 52.982 169.103 52.916 169.103 52.82V46.988H168.635C168.323 46.988 168.119 46.724 168.023 46.196C167.999 46.04 167.987 45.884 167.987 45.728C167.987 45.356 168.059 44.984 168.203 44.612C168.419 44.084 168.755 43.82 169.211 43.82C169.667 43.82 170.075 43.928 170.435 44.144C170.795 44.36 171.035 44.576 171.155 44.792C171.911 44.144 172.811 43.82 173.855 43.82C174.899 43.82 175.655 44.102 176.123 44.666C176.591 45.23 176.825 46.154 176.825 47.438V52.838C176.825 52.982 176.309 53.054 175.277 53.054C174.257 53.054 173.747 52.982 173.747 52.838V47.636C173.747 47.036 173.537 46.736 173.117 46.736C172.997 46.736 172.829 46.79 172.613 46.898C172.397 46.994 172.259 47.066 172.199 47.114V52.892ZM182.491 52.892C182.491 53.036 181.987 53.108 180.979 53.108C179.779 53.06 179.179 52.982 179.179 52.874V46.502H178.261C178.021 46.502 177.901 46.088 177.901 45.26C177.901 45.044 177.919 44.78 177.955 44.468C178.003 44.156 178.093 44 178.225 44H179.179V42.416C179.179 42.176 179.683 42.056 180.691 42.056C181.711 42.056 182.221 42.152 182.221 42.344V43.496L182.239 44H183.769C183.973 44 184.075 44.42 184.075 45.26C184.075 46.1 183.973 46.52 183.769 46.52H182.491V52.892Z" fill="#747474"/>
</svg>
