<svg width="30" height="35" viewBox="0 0 30 35" fill="none" xmlns="http://www.w3.org/2000/svg">
<path d="M1.19208 14.5636C-0.132839 5.17871 9.87559 1.65124 15.2451 1.02331C20.6145 1.65124 30.6229 5.17871 29.298 14.5636C26.6638 23.4541 18.968 31.0074 15.2451 33.8421C11.5222 31.0074 3.82629 23.4541 1.19208 14.5636Z" fill="#FF8E28"/>
<path d="M15.4548 1C10.1412 1.55932 -0.150291 5.05508 1.19208 14.5636C3.87681 23.6246 11.8192 31.2966 15.4548 34M15.0353 1C20.3489 1.55932 30.6404 5.05508 29.298 14.5636C26.6133 23.6246 18.6709 31.2966 15.0353 34" stroke="white"/>
<path d="M11.6677 17.5424C11.3897 17.8046 10.6943 18.2319 10.0758 17.6301C9.18267 16.761 9.63668 13.5119 11.6677 11.0495C12.104 10.5205 12.5742 10.143 13.6154 9.93708C16.0155 9.46229 19.2028 9.94856 20.5397 11.6466M11.6677 17.5424C14.6139 16.5378 20.5991 14.4555 20.9708 14.1629C21.2776 13.9213 21.6326 12.2879 20.5397 11.6466M11.6677 17.5424C11.7446 17.4134 11.826 17.2803 11.9115 17.144M17.4597 11.2573C19.0732 10.83 19.9776 11.3167 20.5397 11.6466M17.4597 11.2573C17.13 11.3446 16.7502 11.5628 16.3429 11.8744M17.4597 11.2573C17.5098 11.1369 17.4927 10.8171 17.0233 10.5002C16.7377 10.1346 16.1008 10.7141 15.8181 11.0495M12.3705 16.4401C12.7014 15.9503 13.0701 15.4386 13.4586 14.9352M12.3705 16.4401C12.0903 16.2581 11.7502 15.9913 11.5295 15.7192M12.3705 16.4401C12.2076 16.6812 12.0539 16.9171 11.9115 17.144M13.4586 14.9352C13.4838 14.7866 13.3183 14.5641 12.5742 14.6285M13.4586 14.9352C14.009 14.222 14.5991 13.5254 15.1771 12.9315M12.5742 14.6285C12.3921 14.6443 12.1754 14.6773 11.9184 14.7327C11.6997 14.7798 11.5473 14.8464 11.4485 14.9266M12.5742 14.6285C12.612 14.2346 12.5534 13.6114 12.1423 13.5489M11.4485 14.9266C11.1513 14.7143 10.7735 14.1682 11.6402 13.6819C11.848 13.5652 12.0127 13.5292 12.1423 13.5489M11.4485 14.9266C11.1947 15.1326 11.2942 15.429 11.5295 15.7192M12.1423 13.5489C12.1252 13.0982 12.2349 12.255 12.8107 12.4882C12.9565 12.5473 13.0566 12.6308 13.1225 12.7271M15.1771 12.9315C14.9281 13.2031 14.4052 13.5923 14.3054 12.9762C14.2989 12.9363 14.2898 12.9023 14.2782 12.8736M15.1771 12.9315C15.5772 12.5205 15.9715 12.1586 16.3429 11.8744M11.5295 15.7192C11.0566 16.0358 10.2979 16.7455 11.0472 17.0517C11.7964 17.358 11.9356 17.2408 11.9115 17.144M13.1225 12.7271C13.3168 13.0111 13.2138 13.4064 13.1088 13.6141C13.443 13.1751 14.1115 12.4603 14.2782 12.8736M13.1225 12.7271C13.1777 12.6149 13.2494 12.4826 13.3309 12.3505M14.2782 12.8736C14.3312 12.7887 14.3922 12.64 14.41 12.4613M16.3429 11.8744L15.8506 11.6835M14.41 12.4613C14.4301 12.2597 14.3953 12.02 14.2324 11.7906C14.0695 11.5613 13.8355 11.6998 13.6154 11.954M14.41 12.4613C14.6657 12.618 15.1021 12.7696 14.802 12.1218C14.502 11.4739 15.0479 11.4324 15.3583 11.4925L15.8506 11.6835M13.6154 11.954C13.5149 12.0701 13.4174 12.2102 13.3309 12.3505M13.6154 11.954C13.7293 11.7608 13.8987 11.5105 14.096 11.2753M15.8506 11.6835C15.9011 11.5425 15.929 11.2914 15.8181 11.0495M13.3309 12.3505C12.9796 12.042 12.4281 11.3849 13.0328 11.2248C13.6375 11.0647 13.9935 11.1917 14.096 11.2753M14.096 11.2753C14.4816 10.8155 14.9735 10.4133 15.3649 10.6073C15.6039 10.7257 15.7429 10.8855 15.8181 11.0495" stroke="white" stroke-width="0.5"/>
<circle cx="15.0353" cy="14.1441" r="8.44915" stroke="white"/>
</svg>
