<svg width="25" height="25" viewBox="0 0 25 25" fill="none" xmlns="http://www.w3.org/2000/svg">
<path d="M10.7312 5.8541C11.3299 4.01148 13.9367 4.01148 14.5355 5.8541L14.9608 7.16319C15.2285 7.98724 15.9965 8.54516 16.8629 8.54516H18.2394C20.1768 8.54516 20.9824 11.0244 19.4149 12.1632L18.3014 12.9723C17.6004 13.4815 17.3071 14.3843 17.5748 15.2083L18.0002 16.5174C18.5989 18.36 16.4899 19.8923 14.9225 18.7535L13.8089 17.9444C13.1079 17.4351 12.1587 17.4351 11.4578 17.9444L10.3442 18.7535C8.77676 19.8923 6.6678 18.36 7.26651 16.5174L7.69185 15.2083C7.9596 14.3843 7.66629 13.4815 6.96531 12.9723L5.85173 12.1632C4.28431 11.0244 5.08986 8.54516 7.0273 8.54516H8.40376C9.27022 8.54516 10.0381 7.98724 10.3059 7.16319L10.7312 5.8541Z" fill="#FF9A00"/>
</svg>
