<svg width="100" height="100" viewBox="0 0 100 100" fill="none" xmlns="http://www.w3.org/2000/svg">
<rect width="100" height="100" rx="10" fill="#FF8E28"/>
<g clip-path="url(#clip0)">
<path d="M78.2938 30.782C77.8892 30.1828 77.0759 30.0251 76.4769 30.4296C75.878 30.834 75.7203 31.6474 76.1246 32.2463C84.3699 44.4597 82.7786 60.8998 72.3411 71.3374C66.5082 77.1703 58.7527 80.3826 50.5034 80.3826C42.254 80.3826 34.4987 77.1705 28.6656 71.3375C22.8326 65.5045 19.6203 57.7492 19.6203 49.4998C19.6203 41.2505 22.8327 33.495 28.6656 27.6621C39.2917 17.036 55.9193 15.5739 68.2022 24.1856C68.7938 24.6005 69.61 24.4571 70.0249 23.8653C70.4398 23.2736 70.2963 22.4575 69.7046 22.0426C63.3351 17.5768 55.5334 15.4708 47.7374 16.1133C39.8496 16.763 32.4192 20.2071 26.8149 25.8114C20.4877 32.1388 17.0031 40.5514 17.0031 49.4998C17.0031 58.4482 20.4877 66.8609 26.8149 73.1882C33.1423 79.5155 41.555 83.0001 50.5032 83.0001C59.4515 83.0001 67.8643 79.5155 74.1916 73.1882C85.5135 61.8662 87.2388 44.0318 78.2938 30.782Z" fill="white"/>
<path d="M50.502 22.2153C35.4573 22.2153 23.2175 34.4551 23.2175 49.4998C23.2175 64.5445 35.4573 76.7843 50.502 76.7843C65.5467 76.7843 77.7865 64.5445 77.7865 49.4998C77.7865 34.4551 65.5467 22.2153 50.502 22.2153ZM50.502 74.1671C36.9005 74.1671 25.8347 63.1015 25.8347 49.4998C25.8347 35.8982 36.9005 24.8326 50.502 24.8326C64.1036 24.8326 75.1693 35.8982 75.1693 49.4998C75.1693 63.1015 64.1036 74.1671 50.502 74.1671Z" fill="white"/>
<path d="M58.8301 55.9774L54.5304 51.6778C54.8822 51.0298 55.0821 50.288 55.0821 49.5002C55.0821 47.4294 53.7002 45.676 51.8106 45.1115V35.6289C51.8106 34.9062 51.2248 34.3203 50.502 34.3203C49.7793 34.3203 49.1934 34.9062 49.1934 35.6289V45.1115C47.3038 45.676 45.9219 47.4293 45.9219 49.5002C45.9219 52.0257 47.9765 54.0803 50.502 54.0803C51.2898 54.0803 52.0316 53.8804 52.6797 53.5286L56.9794 57.8282C57.2349 58.0837 57.5698 58.2115 57.9047 58.2115C58.2397 58.2115 58.5744 58.0836 58.83 57.8282C59.3411 57.3169 59.3411 56.4884 58.8301 55.9774ZM48.5392 49.5002C48.5392 48.4178 49.4198 47.5373 50.5021 47.5373C51.5845 47.5373 52.4651 48.4178 52.4651 49.5002C52.4651 50.5825 51.5846 51.4631 50.5021 51.4631C49.4198 51.4631 48.5392 50.5825 48.5392 49.5002Z" fill="white"/>
<path d="M50.5021 31.459C51.2248 31.459 51.8107 30.8731 51.8107 30.1504V28.8252C51.8107 28.1025 51.2248 27.5166 50.5021 27.5166C49.7793 27.5166 49.1935 28.1025 49.1935 28.8252V30.1504C49.1935 30.8731 49.7793 31.459 50.5021 31.459Z" fill="white"/>
<path d="M41.298 30.9407C40.9366 30.3147 40.1361 30.1003 39.5105 30.4617C38.8846 30.8232 38.6701 31.6234 39.0315 32.2493L39.6942 33.397C39.9366 33.8168 40.3764 34.0515 40.8286 34.0515C41.0506 34.0515 41.2758 33.9949 41.4818 33.876C42.1077 33.5146 42.3221 32.7144 41.9607 32.0885L41.298 30.9407Z" fill="white"/>
<path d="M34.3993 38.6917L33.2515 38.029C32.6257 37.6677 31.8253 37.8821 31.464 38.508C31.1025 39.1339 31.317 39.9341 31.9429 40.2955L33.0907 40.9582C33.2968 41.0771 33.5217 41.1337 33.7438 41.1337C34.1959 41.1337 34.6359 40.899 34.8782 40.4791C35.2397 39.8535 35.0252 39.0531 34.3993 38.6917Z" fill="white"/>
<path d="M32.4613 49.5C32.4613 48.7773 31.8755 48.1914 31.1527 48.1914H29.8274C29.1047 48.1914 28.5188 48.7773 28.5188 49.5C28.5188 50.2227 29.1047 50.8086 29.8274 50.8086H31.1527C31.8753 50.8086 32.4613 50.2226 32.4613 49.5Z" fill="white"/>
<path d="M33.0907 58.0414L31.9429 58.7041C31.317 59.0654 31.1025 59.8657 31.464 60.4916C31.7063 60.9114 32.1461 61.146 32.5984 61.146C32.8203 61.146 33.0454 61.0895 33.2515 60.9705L34.3993 60.3079C35.0252 59.9466 35.2397 59.1462 34.8782 58.5203C34.5169 57.8943 33.7165 57.6798 33.0907 58.0414Z" fill="white"/>
<path d="M41.4817 65.1238C40.8561 64.7625 40.0556 64.9768 39.6942 65.6027L39.0315 66.7505C38.6701 67.3764 38.8847 68.1767 39.5105 68.538C39.7166 68.657 39.9415 68.7135 40.1636 68.7135C40.6158 68.7135 41.0556 68.4789 41.298 68.0591L41.9607 66.9113C42.3221 66.2854 42.1075 65.4851 41.4817 65.1238Z" fill="white"/>
<path d="M50.5021 67.5405C49.7793 67.5405 49.1935 68.1264 49.1935 68.8491V70.1743C49.1935 70.8971 49.7793 71.4829 50.5021 71.4829C51.2248 71.4829 51.8107 70.8971 51.8107 70.1743V68.8491C51.8105 68.1264 51.2248 67.5405 50.5021 67.5405Z" fill="white"/>
<path d="M61.31 65.6027C60.9488 64.977 60.1489 64.7625 59.5225 65.1236C58.8967 65.4849 58.6821 66.2853 59.0435 66.9112L59.7061 68.0589C59.9484 68.4787 60.3882 68.7135 60.8406 68.7135C61.0626 68.7135 61.2875 68.657 61.4936 68.538C62.1194 68.1767 62.334 67.3763 61.9726 66.7505L61.31 65.6027Z" fill="white"/>
<path d="M69.0612 58.7035L67.9134 58.0409C67.2873 57.6793 66.4872 57.8939 66.1259 58.5198C65.7645 59.1457 65.9789 59.9461 66.6048 60.3074L67.7526 60.97C67.9587 61.0891 68.1837 61.1455 68.4056 61.1455C68.8578 61.1455 69.2978 60.9109 69.5402 60.4911C69.9015 59.8652 69.6871 59.0648 69.0612 58.7035Z" fill="white"/>
<path d="M68.5428 49.5C68.5428 50.2227 69.1288 50.8086 69.8514 50.8086H71.1768C71.8994 50.8086 72.4854 50.2227 72.4854 49.5C72.4854 48.7773 71.8994 48.1914 71.1768 48.1914H69.8514C69.1287 48.1914 68.5428 48.7773 68.5428 49.5Z" fill="white"/>
<path d="M66.6048 38.6916C65.9789 39.053 65.7645 39.8532 66.1259 40.4791C66.3684 40.899 66.8081 41.1337 67.2604 41.1337C67.4824 41.1337 67.7075 41.0771 67.9134 40.9582L69.0612 40.2955C69.6871 39.9341 69.9016 39.1339 69.5401 38.508C69.1787 37.8821 68.3786 37.6677 67.7526 38.029L66.6048 38.6916Z" fill="white"/>
<path d="M61.4936 30.4613C60.8676 30.0997 60.0674 30.3143 59.7061 30.9402L59.0436 32.088C58.6821 32.7139 58.8966 33.5142 59.5225 33.8755C59.7286 33.9946 59.9536 34.051 60.1755 34.051C60.6277 34.051 61.0677 33.8164 61.31 33.3966L61.9727 32.2488C62.334 31.6229 62.1197 30.8226 61.4936 30.4613Z" fill="white"/>
<path d="M73.4098 28.2923C74.132 28.2923 74.7174 27.7069 74.7174 26.9848C74.7174 26.2627 74.132 25.6772 73.4098 25.6772C72.6877 25.6772 72.1023 26.2627 72.1023 26.9848C72.1023 27.7069 72.6877 28.2923 73.4098 28.2923Z" fill="white"/>
</g>
<defs>
<clipPath id="clip0">
<rect width="67" height="67" fill="white" transform="translate(17 16)"/>
</clipPath>
</defs>
</svg>
