<svg width="20" height="20" viewBox="0 0 20 20" fill="none" xmlns="http://www.w3.org/2000/svg">
<path d="M17.633 5.50728C17.646 5.71731 17.646 5.92614 17.646 6.13498C17.646 12.526 13.593 19.8904 6.186 19.8904C3.904 19.8904 1.784 19.0971 0 17.7192C0.324 17.7636 0.636 17.7792 0.973 17.7792C2.78599 17.7845 4.54765 17.0569 5.974 15.7137C5.13342 15.6955 4.31858 15.3626 3.64324 14.7616C2.9679 14.1607 2.46579 13.3216 2.207 12.3616C2.456 12.406 2.706 12.436 2.968 12.436C3.329 12.436 3.692 12.376 4.029 12.2716C3.11676 12.0505 2.29647 11.457 1.70762 10.5921C1.11876 9.72718 0.797693 8.64416 0.799 7.5272V7.46719C1.336 7.82605 1.959 8.05048 2.619 8.08049C2.06609 7.63952 1.61272 7.04115 1.29934 6.33876C0.98596 5.63637 0.822313 4.8518 0.823 4.05504C0.823 3.1573 1.022 2.33397 1.371 1.61625C2.38314 3.11052 3.6455 4.33296 5.07634 5.20442C6.50717 6.07587 8.07456 6.5769 9.677 6.67506C9.615 6.315 9.577 5.94174 9.577 5.56728C9.57674 4.93234 9.68075 4.30355 9.88308 3.71688C10.0854 3.1302 10.3821 2.59714 10.7562 2.14816C11.1303 1.69919 11.5744 1.3431 12.0632 1.10026C12.5521 0.857425 13.076 0.732595 13.605 0.732911C14.765 0.732911 15.812 1.3162 16.548 2.25955C17.4498 2.05026 18.3145 1.65516 19.104 1.09177C18.8034 2.20893 18.1738 3.15622 17.333 3.7562C18.1328 3.64671 18.9144 3.39428 19.652 3.00727C19.1011 3.97115 18.4185 4.81638 17.633 5.50728Z" fill="#1E1D23"/>
</svg>
